<svg width="25" height="25" viewBox="0 0 25 25" fill="none" xmlns="http://www.w3.org/2000/svg">
<g id="Icons/Feather/search">
<path id="Vector (Stroke)" fill-rule="evenodd" clip-rule="evenodd" d="M11.3105 4.37891C7.44455 4.37891 4.31055 7.51291 4.31055 11.3789C4.31055 15.2449 7.44455 18.3789 11.3105 18.3789C15.1765 18.3789 18.3105 15.2449 18.3105 11.3789C18.3105 7.51291 15.1765 4.37891 11.3105 4.37891ZM2.31055 11.3789C2.31055 6.40834 6.33998 2.37891 11.3105 2.37891C16.2811 2.37891 20.3105 6.40834 20.3105 11.3789C20.3105 16.3495 16.2811 20.3789 11.3105 20.3789C6.33998 20.3789 2.31055 16.3495 2.31055 11.3789Z" fill="white"/>
<path id="Vector (Stroke)_2" fill-rule="evenodd" clip-rule="evenodd" d="M16.2534 16.3217C16.644 15.9312 17.2771 15.9312 17.6677 16.3217L22.0177 20.6717C22.4082 21.0622 22.4082 21.6954 22.0177 22.0859C21.6271 22.4764 20.994 22.4764 20.6034 22.0859L16.2534 17.7359C15.8629 17.3454 15.8629 16.7122 16.2534 16.3217Z" fill="white"/>
</g>
</svg>
