<svg width="17" height="17" viewBox="0 0 17 17" fill="none" xmlns="http://www.w3.org/2000/svg">
<path id="Vector" d="M7.07903 0.0596418C6.7725 0.156538 6.46909 0.372211 6.30331 0.61289C6.16569 0.812936 4.83945 3.93551 4.63927 4.53252C4.5642 4.75444 4.47349 5.05138 4.43908 5.18891C4.28581 5.79843 4.15444 6.71426 4.15444 7.19249L4.15444 7.38316L3.4663 8.50528C2.94394 9.35547 2.75627 9.63679 2.69058 9.66492C2.64366 9.68367 2.39968 9.90872 2.1432 10.165C1.80538 10.512 1.68339 10.6526 1.68339 10.7089C1.68339 10.7652 1.5833 10.8839 1.30492 11.159C0.763789 11.6966 0.557347 12.0061 0.394696 12.5187C0.332138 12.725 0.322754 12.8156 0.322754 13.2688C0.322754 13.7221 0.332138 13.8127 0.394696 14.019C0.544835 14.4972 0.779428 14.863 1.17042 15.2412C1.58017 15.635 1.94614 15.8382 2.45599 15.9601C2.82821 16.0507 3.49132 16.032 3.82601 15.9257C4.33273 15.7632 4.63301 15.5631 5.15537 15.038C5.3712 14.8223 5.57138 14.6442 5.60266 14.6442C5.63394 14.6442 5.6965 14.6254 5.74342 14.6004C5.87479 14.5316 6.62236 13.7596 6.65677 13.6564C6.68492 13.5783 6.87259 13.4501 7.81722 12.8688L8.94327 12.1749L9.15596 12.1749C10.0943 12.1749 11.5707 11.8435 12.5404 11.4122C12.7374 11.3278 12.8094 11.209 12.7562 11.0684C12.7249 10.9808 12.6092 10.8933 12.531 10.8933C12.5028 10.8933 12.2995 10.9652 12.0774 11.0496C11.5895 11.2434 11.0546 11.4028 10.5479 11.5028C10.1538 11.5841 9.32174 11.6904 9.29672 11.6654C9.27795 11.6466 9.57198 11.1621 9.81283 10.8089C9.98486 10.5557 9.99112 10.5495 10.2382 10.4526C10.3758 10.3995 10.6636 10.2682 10.8794 10.1619C11.4237 9.88997 14.1168 8.40838 14.2951 8.27711C14.5798 8.07081 14.8081 7.66759 14.8488 7.30501L14.8707 7.09559L15.1209 7.34565C15.4024 7.62383 15.5995 7.93015 15.7183 8.27398C15.8122 8.53654 15.8466 8.9085 15.7934 9.09916C15.7465 9.27733 15.5869 9.50551 15.4337 9.60865C15.3617 9.65866 14.8675 9.88372 14.3327 10.1088C13.8009 10.3338 13.3474 10.5401 13.3286 10.5714C13.216 10.7245 13.3317 10.9558 13.5225 10.9558C13.6633 10.9558 15.4962 10.1838 15.7214 10.0275C15.9185 9.89309 16.0968 9.67117 16.2188 9.40861C16.3376 9.14605 16.3564 8.7022 16.2657 8.33337C16.1938 8.05205 16.0061 7.63321 15.8497 7.40191C15.6182 7.06121 15.0646 6.57985 14.8175 6.50171C14.7831 6.48921 14.7111 6.38606 14.6392 6.24228C14.4703 5.89845 14.3076 5.66402 14.0668 5.42022C13.8603 5.21079 13.4912 4.94511 13.2911 4.86384C13.216 4.82946 13.1659 4.77007 13.0815 4.60441C12.9345 4.31059 12.8187 4.14493 12.5748 3.8855C12.3589 3.66045 11.9304 3.351 11.6896 3.25098C11.5613 3.19784 11.5363 3.16659 11.4081 2.92591C11.161 2.4508 10.623 1.95382 10.085 1.70063C9.91605 1.62249 9.86913 1.58186 9.83159 1.49434C9.71586 1.21615 9.26857 0.719165 8.93076 0.487863C8.70555 0.334703 8.28641 0.147161 8.01428 0.0783958C7.7359 0.00650406 7.27609 -0.00287247 7.07903 0.0596418ZM7.88603 0.566005C8.4647 0.716039 9.09341 1.18489 9.33738 1.65062C9.41245 1.79128 9.42496 1.84754 9.42496 2.09447C9.42496 2.32265 9.41245 2.40079 9.35615 2.51644C9.26544 2.69461 7.08529 5.17016 6.6161 5.62339C6.20635 6.02035 5.8873 6.28291 5.45252 6.57673C5.07092 6.83616 4.68931 7.06121 4.67055 7.04245C4.64552 7.01745 4.71434 6.41106 4.78315 6.01722C4.91765 5.24205 5.08343 4.71693 5.51508 3.68858C6.72871 0.787929 6.62236 1.01923 6.8288 0.80981C6.95079 0.684782 7.0634 0.603514 7.15723 0.569131C7.34178 0.506617 7.64831 0.503491 7.88603 0.566005ZM10.1913 2.34453C10.4666 2.52582 10.8106 2.89153 10.9608 3.16034C11.0765 3.36663 11.0828 3.38851 11.0828 3.65732C11.0828 4.05741 11.0233 4.15743 10.4978 4.64504C9.66269 5.42647 9.7096 5.37333 9.7096 5.50148C9.7096 5.64527 9.80657 5.73591 9.95984 5.73591C10.0505 5.73591 10.1162 5.69215 10.3884 5.44835C11.3236 4.60128 11.4863 4.40124 11.5738 3.98239C11.5957 3.87925 11.6208 3.79798 11.6301 3.79798C11.6927 3.79798 11.9898 4.02928 12.1932 4.23558C12.6874 4.73569 12.8844 5.26393 12.7374 5.69528C12.6342 5.99535 12.5873 6.03598 11.0046 7.16748C9.36866 8.33962 9.1153 8.50216 8.43342 8.83035C7.99551 9.03978 7.04776 9.38673 7.01335 9.35235C6.97894 9.31796 7.25107 8.57717 7.47941 8.08019C7.58263 7.85826 7.60452 7.83638 7.86727 7.65197C8.37399 7.29564 9.29672 6.48608 9.37492 6.32667C9.41558 6.2454 9.41558 6.22352 9.36866 6.12662C9.31236 6.01097 9.21227 5.96409 9.08402 5.99847C9.04336 6.00785 8.87133 6.14538 8.69929 6.30166C8.02679 6.9268 7.39183 7.39878 6.75686 7.75199C6.4472 7.9239 5.84038 8.21147 5.82162 8.19584C5.79972 8.17083 5.98114 7.38941 6.09062 7.04871L6.21573 6.65799L6.52227 6.40169C6.69117 6.26103 6.95079 6.02035 7.10093 5.87032C7.43874 5.52649 9.60951 3.07282 9.71273 2.91653C9.81283 2.76962 9.94107 2.41642 9.94107 2.29764C9.94107 2.24451 9.95045 2.20387 9.95984 2.20387C9.97235 2.20387 10.0756 2.26639 10.1913 2.34453ZM13.51 5.60151C13.851 5.86719 14.1606 6.32354 14.3045 6.76114C14.3764 6.98932 14.3608 7.32689 14.2638 7.52381C14.1262 7.802 14.023 7.87076 12.4403 8.74283C11.6082 9.19919 10.8012 9.63679 10.6448 9.71493C10.0255 10.0212 9.25293 10.2869 8.53977 10.437C8.3302 10.4807 8.15191 10.5182 8.14252 10.5182C8.10499 10.5182 8.48034 9.74306 8.67114 9.42736C8.77749 9.25545 8.8119 9.22732 9.1372 9.04603C9.33113 8.93975 9.58449 8.78972 9.70335 8.71158C10.1819 8.40838 12.7499 6.55484 12.8813 6.42044C13.1065 6.19226 13.2879 5.80155 13.2879 5.53899C13.2879 5.49211 13.2973 5.4546 13.3067 5.4546C13.3161 5.4546 13.4068 5.52024 13.51 5.60151ZM5.45252 7.46442C5.41186 7.63321 5.36807 7.83326 5.35556 7.90827C5.34617 7.98642 5.32741 8.04893 5.31489 8.04893C5.30551 8.04893 5.19291 7.9364 5.06779 7.79887L4.83945 7.54882L4.93642 7.49255C4.98959 7.46442 5.14286 7.37378 5.27423 7.29564C5.4056 7.21749 5.51821 7.15185 5.52134 7.15498C5.52446 7.1581 5.49319 7.29564 5.45252 7.46442ZM4.80505 8.27711L5.15537 8.62718L4.90201 8.94913C4.76438 9.12417 4.64239 9.26795 4.62988 9.26795C4.58609 9.26795 3.99179 8.64906 4.00117 8.61781C4.0262 8.55529 4.42031 7.9239 4.43595 7.9239C4.44534 7.9239 4.61112 8.08331 4.80505 8.27711ZM6.65051 8.78034L6.49099 9.23982L6.22824 8.98039C5.96863 8.72095 5.93422 8.67407 6.00929 8.67407C6.02806 8.67407 6.21573 8.58968 6.42217 8.48965C6.62862 8.38963 6.80065 8.31149 6.80378 8.31461C6.80691 8.31461 6.73809 8.52716 6.65051 8.78034ZM5.96863 10.0337L5.67148 10.3307L5.33366 9.99311L4.99585 9.65554L5.25546 9.32421L5.51508 8.98977L5.89043 9.36485L6.26578 9.73681L5.96863 10.0337ZM4.28581 9.72118C4.2733 9.73993 4.14506 9.90872 4.00117 10.0931L3.7353 10.4276L3.47256 10.165L3.20668 9.89934L3.45379 9.493L3.70089 9.08354L4.0043 9.3836C4.18259 9.56177 4.29832 9.6993 4.28581 9.72118ZM7.89855 9.78994C7.83912 9.90872 7.76092 10.0838 7.72026 10.1807C7.67959 10.2807 7.63893 10.3619 7.62642 10.3619C7.61703 10.3619 7.49817 10.2525 7.36367 10.115L7.1197 9.87121L7.53884 9.73056C7.76717 9.65241 7.96423 9.58677 7.97987 9.58365C7.99238 9.58365 7.95485 9.67429 7.89855 9.78994ZM4.98334 11.0183L4.65491 11.3465L4.37652 11.0652L4.09501 10.7839L4.38278 10.4213L4.67055 10.0556L4.99272 10.3745L5.31177 10.6901L4.98334 11.0183ZM6.99145 10.462L7.33865 10.8089L7.01022 11.0746L6.68179 11.3372L6.35649 11.0152L6.03119 10.6901L6.31895 10.4026C6.47848 10.2432 6.6161 10.1119 6.62549 10.1119C6.63174 10.1119 6.79752 10.2682 6.99145 10.462ZM4.46723 11.8779L6.10938 13.5189L5.82787 13.8002L5.54636 14.0815L5.18665 13.7221C4.84884 13.3876 4.81756 13.3626 4.70495 13.3626C4.53917 13.3626 4.46723 13.4314 4.46723 13.5939C4.46723 13.7127 4.486 13.7408 4.78941 14.044L5.10845 14.366L4.70182 14.7629C4.39529 15.063 4.24202 15.188 4.07624 15.2755C3.5226 15.5631 2.93456 15.61 2.36841 15.4131C2.03059 15.2943 1.82102 15.1568 1.49572 14.8317C1.01402 14.3503 0.838859 13.9784 0.813835 13.372C0.795068 12.9375 0.857626 12.6437 1.03592 12.2905C1.14227 12.078 1.2361 11.9623 1.56453 11.6279L1.96178 11.2215L2.89389 12.1498C3.7353 12.9907 3.83852 13.0813 3.92923 13.0813C4.06686 13.0813 4.18572 12.9625 4.18572 12.825C4.18572 12.7344 4.09188 12.6281 3.21607 11.7529L2.24642 10.7839L2.51855 10.5089C2.67181 10.3588 2.80006 10.2369 2.80944 10.2369C2.81882 10.2369 3.56327 10.9746 4.46723 11.8779ZM9.18412 10.8214C9.18099 10.8371 9.08402 10.9996 8.97455 11.184L8.77123 11.5216L8.52726 11.2778C8.39276 11.1434 8.28328 11.0277 8.28328 11.0183C8.28328 11.009 8.44906 10.9683 8.65237 10.9277C8.85256 10.8871 9.04649 10.8433 9.0809 10.8277C9.16222 10.7964 9.19663 10.7933 9.18412 10.8214ZM5.91232 11.9436L5.54636 12.2342L5.28049 11.9686L5.01462 11.706L5.34305 11.3778L5.67148 11.0496L5.97488 11.3528L6.27829 11.6529L5.91232 11.9436ZM8.40839 11.8935C8.40839 11.9092 7.77656 12.303 7.71087 12.328C7.68272 12.3374 7.0634 11.7404 7.0634 11.6997C7.0634 11.6872 7.20728 11.5653 7.38557 11.4278L7.70462 11.1778L8.05807 11.5278C8.24887 11.7185 8.40839 11.8842 8.40839 11.8935ZM6.83819 12.8719L6.43156 13.1219L6.16881 12.8594L5.90607 12.5968L6.27203 12.3061L6.638 12.0154L6.94141 12.3186L7.24794 12.625L6.83819 12.8719Z" fill="#AAF40C"/>
</svg>
