<svg width="18" height="18" viewBox="0 0 18 18" fill="none" xmlns="http://www.w3.org/2000/svg">
<g id="Icons/Feather/arrow-right-circle" clip-path="url(#clip0_1085_109)">
<path id="Vector (Stroke)" fill-rule="evenodd" clip-rule="evenodd" d="M9 2.25C5.27208 2.25 2.25 5.27208 2.25 9C2.25 12.7279 5.27208 15.75 9 15.75C12.7279 15.75 15.75 12.7279 15.75 9C15.75 5.27208 12.7279 2.25 9 2.25ZM0.75 9C0.75 4.44365 4.44365 0.75 9 0.75C13.5563 0.75 17.25 4.44365 17.25 9C17.25 13.5563 13.5563 17.25 9 17.25C4.44365 17.25 0.75 13.5563 0.75 9Z" fill="white"/>
<path id="Vector (Stroke)_2" fill-rule="evenodd" clip-rule="evenodd" d="M8.46967 5.46967C8.76256 5.17678 9.23744 5.17678 9.53033 5.46967L12.5303 8.46967C12.8232 8.76256 12.8232 9.23744 12.5303 9.53033L9.53033 12.5303C9.23744 12.8232 8.76256 12.8232 8.46967 12.5303C8.17678 12.2374 8.17678 11.7626 8.46967 11.4697L10.9393 9L8.46967 6.53033C8.17678 6.23744 8.17678 5.76256 8.46967 5.46967Z" fill="white"/>
<path id="Vector (Stroke)_3" fill-rule="evenodd" clip-rule="evenodd" d="M5.25 9C5.25 8.58579 5.58579 8.25 6 8.25H12C12.4142 8.25 12.75 8.58579 12.75 9C12.75 9.41421 12.4142 9.75 12 9.75H6C5.58579 9.75 5.25 9.41421 5.25 9Z" fill="white"/>
</g>
<defs>
<clipPath id="clip0_1085_109">
<rect width="18" height="18" fill="white"/>
</clipPath>
</defs>
</svg>
