<svg width="18" height="19" viewBox="0 0 18 19" fill="none" xmlns="http://www.w3.org/2000/svg">
<g id="Icons/Feather/arrow-right">
<path id="Vector (Stroke)" fill-rule="evenodd" clip-rule="evenodd" d="M3 9.05713C3 8.64292 3.33579 8.30713 3.75 8.30713H14.25C14.6642 8.30713 15 8.64292 15 9.05713C15 9.47134 14.6642 9.80713 14.25 9.80713H3.75C3.33579 9.80713 3 9.47134 3 9.05713Z" fill="#192335"/>
<path id="Vector (Stroke)_2" fill-rule="evenodd" clip-rule="evenodd" d="M8.46967 3.2768C8.76256 2.98391 9.23744 2.98391 9.53033 3.2768L14.7803 8.5268C15.0732 8.81969 15.0732 9.29457 14.7803 9.58746L9.53033 14.8375C9.23744 15.1304 8.76256 15.1304 8.46967 14.8375C8.17678 14.5446 8.17678 14.0697 8.46967 13.7768L13.1893 9.05713L8.46967 4.33746C8.17678 4.04457 8.17678 3.56969 8.46967 3.2768Z" fill="#192335"/>
</g>
</svg>
