<svg width="19" height="19" viewBox="0 0 19 19" fill="none" xmlns="http://www.w3.org/2000/svg">
<g id="Icons/Feather/arrow-right">
<path id="Vector (Stroke)" fill-rule="evenodd" clip-rule="evenodd" d="M3.5 9.05713C3.5 8.64292 3.83579 8.30713 4.25 8.30713H14.75C15.1642 8.30713 15.5 8.64292 15.5 9.05713C15.5 9.47134 15.1642 9.80713 14.75 9.80713H4.25C3.83579 9.80713 3.5 9.47134 3.5 9.05713Z" fill="white"/>
<path id="Vector (Stroke)_2" fill-rule="evenodd" clip-rule="evenodd" d="M8.96967 3.2768C9.26256 2.98391 9.73744 2.98391 10.0303 3.2768L15.2803 8.5268C15.5732 8.81969 15.5732 9.29457 15.2803 9.58746L10.0303 14.8375C9.73744 15.1304 9.26256 15.1304 8.96967 14.8375C8.67678 14.5446 8.67678 14.0697 8.96967 13.7768L13.6893 9.05713L8.96967 4.33746C8.67678 4.04457 8.67678 3.56969 8.96967 3.2768Z" fill="white"/>
</g>
</svg>
