<svg width="18" height="19" viewBox="0 0 18 19" fill="none" xmlns="http://www.w3.org/2000/svg">
<g id="Icons/Feather/calendar">
<path id="Vector (Stroke)" fill-rule="evenodd" clip-rule="evenodd" d="M3.75 4.25C3.33579 4.25 3 4.58579 3 5V15.5C3 15.9142 3.33579 16.25 3.75 16.25H14.25C14.6642 16.25 15 15.9142 15 15.5V5C15 4.58579 14.6642 4.25 14.25 4.25H3.75ZM1.5 5C1.5 3.75736 2.50736 2.75 3.75 2.75H14.25C15.4926 2.75 16.5 3.75736 16.5 5V15.5C16.5 16.7426 15.4926 17.75 14.25 17.75H3.75C2.50736 17.75 1.5 16.7426 1.5 15.5V5Z" fill="#192335"/>
<path id="Vector (Stroke)_2" fill-rule="evenodd" clip-rule="evenodd" d="M12 1.25C12.4142 1.25 12.75 1.58579 12.75 2V5C12.75 5.41421 12.4142 5.75 12 5.75C11.5858 5.75 11.25 5.41421 11.25 5V2C11.25 1.58579 11.5858 1.25 12 1.25Z" fill="#192335"/>
<path id="Vector (Stroke)_3" fill-rule="evenodd" clip-rule="evenodd" d="M6 1.25C6.41421 1.25 6.75 1.58579 6.75 2V5C6.75 5.41421 6.41421 5.75 6 5.75C5.58579 5.75 5.25 5.41421 5.25 5V2C5.25 1.58579 5.58579 1.25 6 1.25Z" fill="#192335"/>
<path id="Vector (Stroke)_4" fill-rule="evenodd" clip-rule="evenodd" d="M1.5 8C1.5 7.58579 1.83579 7.25 2.25 7.25H15.75C16.1642 7.25 16.5 7.58579 16.5 8C16.5 8.41421 16.1642 8.75 15.75 8.75H2.25C1.83579 8.75 1.5 8.41421 1.5 8Z" fill="#192335"/>
</g>
</svg>
