<svg width="19" height="18" viewBox="0 0 19 18" fill="none" xmlns="http://www.w3.org/2000/svg">
<g id="Icons/Feather/check-circle">
<path id="Vector (Stroke)" fill-rule="evenodd" clip-rule="evenodd" d="M12.295 2.82997C10.9654 2.23755 9.47996 2.09078 8.06016 2.41157C6.64036 2.73235 5.36229 3.5035 4.41657 4.60999C3.47085 5.71649 2.90814 7.09905 2.81236 8.55148C2.71659 10.0039 3.09289 11.4484 3.88513 12.6695C4.67737 13.8906 5.84312 14.8229 7.2085 15.3273C8.57388 15.8318 10.0657 15.8813 11.4616 15.4686C12.8574 15.0559 14.0825 14.203 14.954 13.0372C15.8256 11.8714 16.2969 10.4551 16.2977 8.99947V8.3099C16.2977 7.89569 16.6335 7.5599 17.0477 7.5599C17.4619 7.5599 17.7977 7.89569 17.7977 8.3099V8.9999C17.7967 10.7789 17.2206 12.5104 16.1554 13.9353C15.0902 15.3602 13.5929 16.4026 11.8869 16.907C10.1809 17.4115 8.35747 17.3509 6.68867 16.7344C5.01987 16.1178 3.59507 14.9784 2.62677 13.4859C1.65847 11.9935 1.19856 10.228 1.31561 8.45279C1.43267 6.67759 2.12043 4.9878 3.27631 3.63541C4.4322 2.28303 5.99428 1.34052 7.72959 0.948448C9.46489 0.556378 11.2805 0.735756 12.9055 1.45983C13.2838 1.62841 13.4539 2.07179 13.2853 2.45015C13.1167 2.8285 12.6733 2.99856 12.295 2.82997Z" fill="#EAEDF0"/>
<path id="Vector (Stroke)_2" fill-rule="evenodd" clip-rule="evenodd" d="M17.5778 2.4694C17.8708 2.76215 17.8711 3.23703 17.5783 3.53006L10.0783 11.0376C9.9377 11.1783 9.74689 11.2574 9.54792 11.2575C9.34894 11.2575 9.1581 11.1785 9.0174 11.0378L6.7674 8.78783C6.47451 8.49494 6.47451 8.02006 6.7674 7.72717C7.06029 7.43428 7.53517 7.43428 7.82806 7.72717L9.54746 9.44657L16.5171 2.46993C16.8099 2.1769 17.2848 2.17666 17.5778 2.4694Z" fill="#EAEDF0"/>
</g>
</svg>
