<svg width="74" height="74" viewBox="0 0 74 74" fill="none" xmlns="http://www.w3.org/2000/svg">
<g id="image 33 (traced)">
<g id="Black">
<path id="Vector" d="M52.3203 2.60152C45.8309 3.39644 39.5293 7.25542 35.8727 12.6753C34.0082 15.4503 32.8664 18.5433 32.5195 21.7519C32.4039 22.8503 32.3027 23.255 32.1004 23.414C31.6668 23.7898 31.5078 24.2234 31.5078 25.0328C31.5078 26.0445 31.8547 28.2992 32.216 29.5277C32.4617 30.4382 32.4762 30.6117 32.2883 31.4789C31.927 33.2421 31.1898 35.2656 30.1926 37.2601C28.4582 40.7433 26.3047 43.6628 22.3445 47.8687L20.0754 50.2824L19.6129 50.0078C19.3527 49.8488 18.9336 49.7187 18.6879 49.7187C18.4277 49.7187 18.2109 49.6609 18.2109 49.5742C18.2109 49.2996 17.6328 49.1117 17.1848 49.2707C16.4187 49.5308 12.9645 52.3492 11.0566 54.257C8.91758 56.396 8.13711 57.6101 7.99258 59.0265C7.8625 60.2839 8.02148 60.7898 8.83086 61.5992L9.53906 62.3074L8.71523 62.6687C4.19141 64.6777 2.76055 65.9929 2.74609 68.1898C2.74609 69.2015 3.03516 69.9242 3.71445 70.5601C4.4082 71.225 5.14531 71.4562 6.50391 71.4417C7.83359 71.4273 8.02148 71.3695 11.8949 69.9097C15.4938 68.5367 16.5488 67.8285 17.3148 66.2386C17.6906 65.4437 17.7484 65.4003 19.2949 64.5765C24.5414 61.816 32.3895 58.7664 38.7344 57.0175L40.6855 56.4828L42.2898 56.7863C44.4434 57.2054 46.5391 57.3066 48.6348 57.0898C59.2289 56.0058 69.4184 47.6375 71.1238 38.6187C71.3984 37.1878 71.225 34.5429 70.7914 33.3578C69.3895 29.571 65.6605 27.4031 59.9805 27.0707L58.4484 26.9839L59.3734 25.5964C61.2523 22.7636 62.8855 18.9914 63.5359 15.9707C63.8973 14.2507 63.8684 11.2589 63.4637 9.75581C62.5242 6.18589 60.1828 3.64214 57.0898 2.81831C56.0637 2.5437 53.7078 2.44254 52.3203 2.60152ZM56.2949 5.05855C62.2352 6.57613 63.3914 13.9183 58.882 21.5351C57.3066 24.2234 54.5895 27.4609 53.9246 27.4609C53.3465 27.4609 51.2941 28.039 49.791 28.6316C47.1605 29.6433 44.5879 31.3054 42.5355 33.2855L41.4949 34.2972L40.4398 34.225C38.2285 34.0804 36.6965 32.7652 35.6848 30.1347C35.468 29.571 34.9766 27.9089 34.6152 26.4492C33.8348 23.3851 33.8348 23.3707 34.7742 20.5234C35.7859 17.5027 37.318 14.8 39.5004 12.1839C40.7723 10.6808 41.4371 10.0882 43.3016 8.84527C48.1867 5.56441 52.9129 4.19136 56.2949 5.05855ZM62.6543 29.8312C67.7129 30.8718 70.0687 34.1527 68.9559 38.5898C68.1898 41.6539 65.9062 45.1371 63.0301 47.6519C58.4773 51.6265 52.5227 54.0546 46.6836 54.3003C44.1109 54.4015 42.8535 54.2136 41.4805 53.5343C39.1246 52.3492 38.084 49.9355 38.4453 46.4378C38.9801 41.1335 38.9223 41.4515 39.4426 40.6132C43.0414 34.7453 49.2707 30.5394 55.7168 29.6289C56.9598 29.4554 61.4547 29.5855 62.6543 29.8312ZM35.8004 35.3957C36.2773 35.7714 36.8699 36.1617 37.1156 36.2628C37.3758 36.3785 37.5781 36.5085 37.5781 36.5664C37.5781 36.6242 37.1445 36.9566 36.6098 37.3179C34.5141 38.7054 32.1148 40.7289 27.3887 45.0937C24.7004 47.5796 24.5992 47.6519 25.9 46.25C26.6805 45.4117 27.6633 44.2699 28.1113 43.7207C30.2359 41.0613 32.2883 37.4046 33.2422 34.6007L33.7336 33.141L34.3406 33.9214C34.673 34.355 35.3379 35.0199 35.8004 35.3957ZM37.9828 39.7171C37.6215 40.541 37.477 40.7289 37 40.9168C36.4941 41.1335 36.4219 41.2492 36.1473 42.1019C35.7137 43.5328 35.4102 45.296 35.4102 46.4234C35.4102 47.3773 35.3668 47.5074 34.7309 48.5914C33.3 51.005 30.9441 53.5921 28.1836 55.789C26.1313 57.4367 21.6652 60.1539 18.3555 61.7871L17.2715 62.3218L16.7223 61.8015C16.4187 61.5125 16.0719 61.2812 15.9707 61.2812C15.6816 61.2812 15.5516 60.732 15.7684 60.4718C15.8695 60.3418 16.6355 59.7058 17.4738 59.041C20.191 56.9164 21.1738 55.6011 21.3473 53.8378L21.434 53.0429L24.1223 50.4125C28.357 46.25 30.9008 43.9953 33.8348 41.755C35.15 40.7578 38.1418 38.7343 38.3152 38.7343C38.373 38.7343 38.2285 39.1679 37.9828 39.7171ZM35.916 51.1929C36.2484 52.2335 36.9133 53.4043 37.6648 54.2859L38.3008 55.0375L37.7949 55.1242C35.9883 55.471 31.5656 57.2054 25.6832 59.8937C23.3129 60.9777 21.3328 61.8593 21.275 61.8593C21.2172 61.8593 21.9543 61.4546 22.9082 60.9777C28.2125 58.2894 32.2594 55.0953 34.8465 51.5398C35.2801 50.9472 35.6414 50.4558 35.6559 50.4558C35.6703 50.4414 35.7859 50.7882 35.916 51.1929ZM18.9625 51.8289C20.2633 52.4792 20.2488 53.2597 18.8902 55.0519C17.8785 56.3816 14.3953 59.041 12.502 59.9226C10.9266 60.6597 9.81367 59.4312 10.7387 57.9281C11.1867 57.191 14.2797 53.939 15.8262 52.5804C17.127 51.4386 17.127 51.4242 17.8063 51.5109C18.182 51.5543 18.7023 51.6843 18.9625 51.8289ZM15.1758 63.0878C16.2887 63.7671 16.491 64.2441 16.0719 65.1113C15.9129 65.4582 15.5516 65.9062 15.2914 66.1085C14.482 66.7156 11.866 67.8863 10.4062 68.291C9.65469 68.5078 8.71523 68.7679 8.31055 68.8835C7.28438 69.1726 6.15703 69.1726 5.70898 68.8835C4.95742 68.3921 5.11641 67.4382 6.07031 66.571C6.89414 65.8195 13.4414 62.5964 14.1496 62.582C14.2508 62.582 14.7133 62.8132 15.1758 63.0878Z" fill="#EAEDF0"/>
<path id="Vector_2" d="M54.9508 6.40287C54.8641 6.50404 54.6906 6.981 54.5461 7.4724L54.3004 8.35404L53.4621 8.44076C52.9852 8.48412 52.2191 8.57084 51.7566 8.6142L50.8895 8.70092L51.1207 7.97826C51.3953 7.13998 51.2508 6.7931 50.6437 6.7931C50.3691 6.7931 50.2102 6.981 49.791 7.79037C49.2273 8.91771 49.5887 8.77318 46.3945 9.19232C44.2844 9.46693 43.9375 9.62592 43.9375 10.3341C43.9375 11.1724 44.3277 11.3169 46.4523 11.2447L48.2301 11.1869L47.7531 12.3287C47.4785 12.9501 47.2039 13.5716 47.1316 13.7017C47.0305 13.8751 44.0531 14.8869 43.6195 14.8869C43.5617 14.8869 43.7496 14.222 44.0242 13.4126C44.2988 12.6033 44.5156 11.8228 44.5156 11.6783C44.5156 11.3314 43.9086 11.0423 43.5762 11.2302C43.4316 11.3169 42.9691 12.2853 42.5211 13.456C42.0875 14.5978 41.6105 15.6529 41.466 15.7974C41.307 15.9419 41.2059 16.231 41.2203 16.4478C41.2492 16.8525 40.1363 19.613 37.6504 25.2931C36.0316 28.9931 35.8293 29.7158 36.1906 30.2794C36.682 31.031 37.7227 30.4529 38.4309 29.022L38.7055 28.4583L40.382 28.3861L42.0441 28.3138L41.8418 29.0076C41.466 30.2505 41.6395 31.2622 42.2465 31.4212C42.9258 31.5947 43.5473 30.8431 43.952 29.3833C44.0965 28.863 44.2555 28.4005 44.2988 28.3427C44.3566 28.2994 45.2527 28.2415 46.2934 28.2126C47.9266 28.1548 48.2445 28.1837 48.4035 28.3861C48.6781 28.7185 49.5309 28.6896 49.7477 28.3283C49.8488 28.1693 50.0078 28.0392 50.0945 28.0392C50.1812 28.0392 50.398 27.8802 50.5859 27.6779C50.8605 27.3888 50.9039 27.2298 50.8316 26.7095C50.7594 26.2181 50.8895 25.6544 51.4098 23.9923C51.7711 22.8361 52.0891 21.8677 52.118 21.8533C52.1324 21.8244 52.8262 21.7232 53.65 21.622C55.8758 21.3474 56.4828 20.9572 56.3383 19.931C56.3094 19.6997 56.107 19.4974 55.7457 19.3095C55.2543 19.0783 55.0809 19.0638 54.098 19.2083C53.491 19.2951 52.9852 19.3529 52.9562 19.324C52.9129 19.2806 54.0258 15.4505 54.098 15.3638C54.127 15.3494 54.9219 15.2626 55.8758 15.1904C57.6391 15.0603 58.6797 14.7712 59.0844 14.2654C59.3879 13.9185 59.2289 13.297 58.7809 12.9501C58.4195 12.6755 58.1738 12.6466 56.5984 12.6466H54.8352L55.0375 11.7794C55.1531 11.3025 55.3555 10.8255 55.4711 10.7244C55.6156 10.6232 56.1359 10.5509 56.8152 10.5509C58.2895 10.5509 59.3156 10.3197 59.8359 9.87162C60.3418 9.45248 60.3852 8.98998 59.9949 8.51303C59.7203 8.1806 59.6336 8.16615 57.827 8.16615C56.2949 8.16615 55.948 8.13725 56.0059 7.97826C56.2371 7.37123 56.2371 6.69193 56.0059 6.46068C55.7168 6.17162 55.1676 6.14271 54.9508 6.40287ZM53.4766 10.9267C53.4766 11.129 52.9996 12.6611 52.9129 12.7622C52.7973 12.8779 49.4008 13.456 49.3141 13.3837C49.2852 13.3548 49.4441 12.8345 49.6609 12.2275C50.0801 11.0134 50.0801 11.0279 51.4531 10.9412C53.0719 10.84 53.4766 10.84 53.4766 10.9267ZM52.0312 15.6962C52.0312 15.8263 50.8461 19.5697 50.7883 19.6419C50.7594 19.6708 49.8633 19.8443 48.7937 20.0177L46.857 20.3212L47.5941 18.2111C47.9988 17.0548 48.3457 16.0865 48.3602 16.0576C48.418 15.9853 50.8605 15.6384 51.4965 15.624C51.7855 15.6095 52.0312 15.6529 52.0312 15.6962ZM45.7152 17.3005C45.5129 17.8497 45.166 18.8326 44.9348 19.5119L44.5156 20.7404L42.9547 21.0583C42.102 21.2173 41.3937 21.3474 41.3793 21.3329C41.3648 21.3185 41.7117 20.3068 42.1453 19.0638L42.9402 16.8236L44.4145 16.5923C45.2238 16.4622 45.932 16.3611 45.9898 16.3466C46.0477 16.3466 45.932 16.7658 45.7152 17.3005ZM49.8633 22.5037C49.791 22.7349 49.5309 23.5009 49.2852 24.2236L48.8371 25.5533L47.0016 25.6111C45.9898 25.64 45.1516 25.6689 45.1371 25.6544C45.0648 25.6111 46.0043 22.9083 46.1344 22.7638C46.25 22.6337 48.8082 22.1857 49.6754 22.1279C49.95 22.1134 49.9789 22.1568 49.8633 22.5037ZM43.6484 23.1251C43.6484 23.1974 43.4461 23.8767 43.2148 24.6427L42.7668 26.0013L42.1598 26.1603C41.8273 26.2326 41.0324 26.4494 40.382 26.6372L39.2113 26.9697L39.9051 25.1775C40.2953 24.1802 40.6277 23.3564 40.6422 23.3419C40.6711 23.313 41.2781 23.2408 41.9863 23.154C42.709 23.0818 43.3738 23.0095 43.475 22.9951C43.5617 22.9951 43.6484 23.0384 43.6484 23.1251Z" fill="#EAEDF0"/>
<path id="Vector_3" d="M58.4918 32.0426C57.8125 32.7508 56.6418 34.0227 55.8613 34.9043L54.4594 36.4797L52.6238 36.4363C51.6266 36.4219 50.7883 36.3785 50.7738 36.3785C50.7594 36.3641 51.2074 35.7281 51.7566 34.9766C52.3059 34.225 52.7539 33.5312 52.7539 33.4301C52.7539 33.1699 52.3348 32.8086 52.0312 32.8086C51.8578 32.8086 51.2219 33.4445 50.2969 34.5719C49.4875 35.5402 48.6926 36.4074 48.5191 36.4941C48.3457 36.5664 48.1723 36.7832 48.1289 36.9566C48.0422 37.3035 45.6141 40.1363 41.8562 44.2699C40.4977 45.773 39.2691 47.2039 39.1391 47.4496C38.6766 48.3168 38.9223 49.1406 39.6449 49.1406C40.0496 49.1406 40.4977 48.8516 41.3793 47.9988C41.7551 47.6375 42.0586 47.4207 42.0586 47.5074C42.0586 47.6086 42.5355 47.8254 43.1137 47.9844C43.6773 48.1578 44.3566 48.3602 44.6168 48.4324L45.0793 48.577L44.5734 49.2996C43.9086 50.2102 43.7785 51.0051 44.2121 51.4387C44.3711 51.5977 44.6457 51.7422 44.8047 51.7422C45.1949 51.7422 45.9609 51.034 46.6113 50.0801C46.9148 49.6465 47.2328 49.2852 47.3195 49.2852C47.4062 49.2852 48.2734 49.5453 49.2418 49.8777C50.557 50.3113 51.0484 50.5426 51.2219 50.8172C51.4676 51.1641 52.2047 51.3086 52.3781 51.034C52.4215 50.9617 52.6816 50.8605 52.9707 50.8172C53.6211 50.6871 53.9102 50.3836 53.9102 49.8055C53.9102 49.4586 54.2281 48.9238 55.3121 47.4641L56.6996 45.5852L57.798 45.8453C60.0672 46.3801 61.3246 46.1199 61.3246 45.0938C61.3246 44.4578 60.7465 43.9953 59.6914 43.793C59.2578 43.7063 58.7519 43.6051 58.5785 43.5617C58.275 43.5039 58.3184 43.3883 59.4168 41.784L60.5875 40.0785L62.1918 40.4832C63.8973 40.9312 64.7644 41.0035 65.4293 40.7434C65.9062 40.5699 66.0508 40.3676 66.0508 39.8762C66.0508 39.1535 64.591 38.243 62.9723 37.9395C62.6687 37.8816 62.4086 37.7805 62.3652 37.7227C62.3219 37.6504 62.9723 36.5375 63.8105 35.2367C64.7355 33.8059 65.3281 32.7363 65.3281 32.5051C65.3281 32.0426 64.7355 31.7102 64.3164 31.9414C64.1719 32.0281 63.2469 33.2133 62.2785 34.5863C61.3102 35.9449 60.4719 37.1301 60.3996 37.2023C60.2984 37.3035 57.4656 36.9711 56.8297 36.7688C56.7141 36.7398 57.0465 36.1906 57.7402 35.309C60.3996 31.8691 60.573 31.6234 60.4719 31.3055C60.3707 30.973 60.1539 30.7852 59.8793 30.7852C59.7781 30.7852 59.1566 31.3488 58.4918 32.0426ZM51.8434 38.3441L52.725 38.5176L51.2797 40.3387L49.8344 42.1453L48.3602 41.9574C47.5652 41.8562 46.8426 41.7551 46.7848 41.7262C46.7125 41.7117 47.3051 40.859 48.0855 39.8473L49.5019 37.9973L50.2246 38.084C50.6293 38.1418 51.3519 38.2574 51.8434 38.3441ZM57.0754 39.3125C57.8992 39.4715 58.593 39.616 58.6074 39.6305C58.6508 39.6738 56.3527 42.8391 56.1504 43.0559C56.0637 43.1426 52.6816 42.6223 52.4504 42.4922C52.3492 42.4199 52.7394 41.784 53.6355 40.6422C54.7195 39.2258 55.0375 38.9078 55.2832 38.9512C55.4422 38.9945 56.2516 39.1535 57.0754 39.3125ZM47.1461 43.7496L48.4035 44.0242L47.4352 45.3105L46.4668 46.6113L45.5996 46.5246C45.1227 46.4668 44.3277 46.4234 43.8219 46.409C43.316 46.3945 42.9258 46.3367 42.9547 46.2789C42.9836 46.2211 43.5184 45.5273 44.1543 44.7469C45.0648 43.6484 45.3684 43.3594 45.5996 43.4172C45.7586 43.4461 46.4523 43.6051 47.1461 43.7496ZM52.7684 44.8336C53.7078 45.007 54.4883 45.1949 54.4883 45.2527C54.4883 45.325 52.8117 47.6086 52.3926 48.1C52.3781 48.1145 51.6844 47.9121 50.8605 47.6375C50.0367 47.3629 49.2418 47.1172 49.0973 47.0883C48.8805 47.0594 48.9961 46.8281 49.7477 45.7875C50.2535 45.0938 50.7449 44.5156 50.8461 44.5156C50.9617 44.5156 51.8144 44.6602 52.7684 44.8336Z" fill="#EAEDF0"/>
<path id="Vector_4" d="M19.9887 8.49844C19.2949 8.74414 18.1531 9.43789 17.9797 9.69805C17.9363 9.77031 17.6184 9.59687 17.257 9.32226C15.9418 8.31054 13.8172 8.1082 12.1551 8.8164C11.2445 9.22109 10.1605 10.3484 10.0305 11.0711C9.9582 11.4613 9.88594 11.5625 9.69805 11.4758C8.58516 11.0277 7.83359 10.8398 7.03867 10.8398C3.97461 10.8398 2.54375 13.0656 3.4543 16.4043C4.19141 19.0637 6.43164 22.9949 8.59961 25.3941C9.14883 26.0156 9.36562 26.1602 9.74141 26.1602C10.3195 26.1602 10.5508 25.9434 10.5508 25.4086C10.5508 24.8738 10.2906 24.368 9.17773 22.7637C7.28437 20.032 5.36211 16.3609 5.04414 14.9012C4.8418 13.9617 5.01523 13.2246 5.57891 12.7043C6.14258 12.184 7.66016 12.2129 9.01875 12.7766C10.0883 13.2246 10.4352 13.1812 10.5219 12.6176C10.5652 12.2996 11.866 10.8543 12.4297 10.5074C13.0223 10.1316 14.0195 9.97265 14.7277 10.1316C15.0602 10.2039 15.7828 10.5219 16.3031 10.8398C17.3871 11.5047 17.5172 11.5191 17.8785 11.1434C18.023 10.9844 18.5145 10.7098 18.9625 10.5074C21.2895 9.48125 22.8359 9.74141 23.6309 11.3168C24.1078 12.2996 24.1078 13.1523 23.573 15.3637C22.966 17.8496 22.4023 19.4105 21.1594 21.9109C20.3211 23.5875 20.0754 24.209 20.1187 24.5848C20.1766 25.2496 20.6824 25.3363 21.275 24.7582C21.9687 24.0934 23.2695 22.041 23.8766 20.6391C24.975 18.1098 25.8422 14.0484 25.6832 12.2707C25.5387 10.652 24.527 9.16328 23.1684 8.59961C22.2867 8.22383 20.8703 8.18047 19.9887 8.49844Z" fill="#EAEDF0"/>
<path id="Vector_5" d="M18.023 15.6383C17.8063 15.7973 17.7629 16.1875 17.6762 18.6445C17.5895 21.6508 17.6617 22.7059 18.0086 23.0527C18.3121 23.3562 18.4566 23.3273 18.8613 22.9082L19.2227 22.5613V19.4105C19.2227 16.0863 19.1359 15.5805 18.5723 15.4937C18.4133 15.4793 18.1676 15.5371 18.023 15.6383Z" fill="#EAEDF0"/>
<path id="Vector_6" d="M13.109 16.8523C12.9066 17.0691 13.0223 17.9074 13.3691 18.6879C13.557 19.1359 14.0629 20.6246 14.4965 21.9977C14.9301 23.3707 15.3203 24.5992 15.3781 24.7438C15.5227 25.0473 15.3781 25.0906 13.2102 25.3508C11.2012 25.5965 10.4062 25.8566 10.4062 26.2902C10.4062 27.0563 11.6348 27.4031 13.9328 27.273C15.725 27.1719 16.7078 26.9406 17.8785 26.377C18.8324 25.9 19.0926 25.4809 18.7312 24.9316C18.5 24.5848 18.3988 24.5559 17.7195 24.5992L16.968 24.6426L16.809 23.4863C16.6211 22.1133 16.2309 20.8848 15.4359 19.2227C15.0891 18.5 14.8434 17.7629 14.8289 17.416L14.8145 16.8379L14.0195 16.7945C13.5715 16.7656 13.1668 16.7945 13.109 16.8523Z" fill="#EAEDF0"/>
<path id="Vector_7" d="M11.3457 18.3554C10.9699 18.7601 11.0277 20.3933 11.4758 22.1422C12.1117 24.6281 12.502 25.2062 13.3258 24.8015C13.7449 24.5847 13.8316 23.732 13.5859 21.8965C13.1813 18.8758 12.2273 17.3726 11.3457 18.3554Z" fill="#EAEDF0"/>
<path id="Vector_8" d="M18.2543 26.3333C18.1965 26.4345 18.1387 27.1716 18.1387 27.9665C18.1387 29.5275 18.0086 29.9322 17.2426 30.6982C16.6211 31.3341 15.6672 31.6954 14.641 31.7099C12.8488 31.7099 11.4035 30.5392 10.9844 28.7326C10.8832 28.3134 10.7098 27.8798 10.5797 27.7787C10.2328 27.5185 9.61133 27.5619 9.32227 27.8943C9.09102 28.1544 9.07656 28.2845 9.20664 29.0361C9.45234 30.3658 9.9293 31.2763 10.7531 32.0568C11.8082 33.054 12.8633 33.4298 14.4098 33.3576C17.1992 33.213 19.1648 31.3052 19.4539 28.429C19.5117 27.8365 19.4828 27.3017 19.3672 26.9693C19.1504 26.2755 18.5289 25.9287 18.2543 26.3333Z" fill="#EAEDF0"/>
</g>
</g>
</svg>
