<svg width="25" height="24" viewBox="0 0 25 24" fill="none" xmlns="http://www.w3.org/2000/svg">
<g id="Instagram">
<rect x="0.335449" width="24" height="24" rx="12" fill="#A8A8A8" fill-opacity="0.2"/>
<path id="Subtract" d="M10.2271 12.073C10.2271 10.8667 11.2053 9.88848 12.4124 9.88848C13.6194 9.88848 14.5982 10.8667 14.5982 12.073C14.5982 13.2793 13.6194 14.2575 12.4124 14.2575C11.2053 14.2575 10.2271 13.2793 10.2271 12.073ZM9.04547 12.073C9.04547 13.9314 10.5528 15.4378 12.4124 15.4378C14.2719 15.4378 15.7792 13.9314 15.7792 12.073C15.7792 10.2146 14.2719 8.70811 12.4124 8.70811C10.5528 8.70811 9.04547 10.2146 9.04547 12.073ZM15.1257 8.57469C15.1256 8.73022 15.1717 8.88227 15.2581 9.01162C15.3445 9.14097 15.4674 9.24181 15.6111 9.30138C15.7549 9.36096 15.9131 9.37659 16.0657 9.34631C16.2184 9.31603 16.3586 9.24119 16.4687 9.13126C16.5788 9.02133 16.6537 8.88125 16.6842 8.72872C16.7146 8.5762 16.6991 8.41808 16.6396 8.27437C16.5801 8.13066 16.4793 8.00781 16.3499 7.92135C16.2206 7.83489 16.0685 7.78871 15.9128 7.78865H15.9125C15.7039 7.78875 15.5039 7.87158 15.3564 8.01897C15.2088 8.16635 15.1259 8.36622 15.1257 8.57469ZM9.76337 17.4069C9.1241 17.3778 8.77664 17.2714 8.54573 17.1815C8.2396 17.0624 8.02118 16.9205 7.79153 16.6913C7.56188 16.4621 7.41973 16.2441 7.30108 15.9381C7.21106 15.7074 7.10458 15.3601 7.07552 14.7212C7.04373 14.0305 7.03739 13.823 7.03739 12.073C7.03739 10.3231 7.04426 10.1162 7.07552 9.42484C7.10463 8.78596 7.2119 8.43928 7.30108 8.20794C7.42026 7.90199 7.5622 7.6837 7.79153 7.45419C8.02087 7.22468 8.23908 7.08261 8.54573 6.96403C8.77653 6.87407 9.1241 6.76765 9.76337 6.73861C10.4545 6.70684 10.6621 6.70049 12.4124 6.70049C14.1626 6.70049 14.3704 6.70736 15.0621 6.73861C15.7014 6.7677 16.0483 6.87491 16.2798 6.96403C16.5859 7.08261 16.8043 7.22499 17.034 7.45419C17.2636 7.68338 17.4052 7.90199 17.5244 8.20794C17.6144 8.4386 17.7209 8.78596 17.75 9.42484C17.7818 10.1162 17.7881 10.3231 17.7881 12.073C17.7881 13.823 17.7818 14.0299 17.75 14.7212C17.7209 15.3601 17.6138 15.7073 17.5244 15.9381C17.4052 16.2441 17.2633 16.4623 17.034 16.6913C16.8046 16.9203 16.5859 17.0624 16.2798 17.1815C16.049 17.2715 15.7014 17.3779 15.0621 17.4069C14.371 17.4387 14.1634 17.445 12.4124 17.445C10.6613 17.445 10.4543 17.4387 9.76337 17.4069ZM9.70908 5.5597C9.01106 5.59147 8.53409 5.70209 8.11754 5.86408C7.68615 6.03136 7.32096 6.25578 6.95603 6.61992C6.5911 6.98405 6.36712 7.3496 6.19973 7.78074C6.03765 8.19729 5.92696 8.67372 5.89518 9.37132C5.86286 10.07 5.85547 10.2934 5.85547 12.073C5.85547 13.8525 5.86286 14.0759 5.89518 14.7746C5.92696 15.4723 6.03765 15.9486 6.19973 16.3652C6.36712 16.7961 6.59115 17.162 6.95603 17.526C7.32091 17.89 7.68615 18.1141 8.11754 18.2819C8.53487 18.4439 9.01106 18.5545 9.70908 18.5862C10.4086 18.618 10.6317 18.6259 12.4124 18.6259C14.193 18.6259 14.4165 18.6185 15.1156 18.5862C15.8137 18.5545 16.2904 18.4439 16.7072 18.2819C17.1383 18.1141 17.5037 17.8902 17.8687 17.526C18.2336 17.1619 18.4571 16.7961 18.625 16.3652C18.7871 15.9486 18.8983 15.4722 18.9295 14.7746C18.9613 14.0754 18.9687 13.8525 18.9687 12.073C18.9687 10.2934 18.9613 10.07 18.9295 9.37132C18.8977 8.67367 18.7871 8.19703 18.625 7.78074C18.4571 7.34987 18.233 6.98463 17.8687 6.61992C17.5043 6.25521 17.1383 6.03136 16.7077 5.86408C16.2904 5.70209 15.8136 5.59095 15.1161 5.5597C14.417 5.52794 14.1935 5.52002 12.4129 5.52002C10.6322 5.52002 10.4086 5.52741 9.70908 5.5597Z" fill="white"/>
</g>
</svg>
