<svg width="25" height="24" viewBox="0 0 25 24" fill="none" xmlns="http://www.w3.org/2000/svg">
<g id="Linkedin">
<rect x="0.335449" width="24" height="24" rx="12" fill="#A8A8A8" fill-opacity="0.2"/>
<path id="Subtract" fill-rule="evenodd" clip-rule="evenodd" d="M6.82463 5.52002C6.28952 5.52002 5.85544 5.94089 5.85544 6.4594V17.6947C5.85544 18.2133 6.28958 18.6338 6.82463 18.6338H18C18.5353 18.6338 18.9692 18.2132 18.9692 17.6946V6.4594C18.9692 5.94089 18.5353 5.52002 18 5.52002H6.82463ZM9.84048 10.5907V16.4945H7.87813V10.5907H9.84048ZM9.96982 8.76485C9.96982 9.33141 9.54388 9.78475 8.85971 9.78475L8.84686 9.7847C8.18825 9.7847 7.76246 9.33136 7.76246 8.7648C7.76246 8.18539 8.2011 7.74469 8.87272 7.74469C9.54388 7.74469 9.95702 8.18539 9.96982 8.76485ZM12.8889 16.4945H10.9267C10.9267 16.4945 10.9524 11.1447 10.9268 10.5909H12.889V11.4266C13.1499 11.0244 13.6167 10.4523 14.6576 10.4523C15.9486 10.4523 16.9166 11.2961 16.9166 13.1095V16.4945H14.9544V13.3365C14.9544 12.5427 14.6703 12.0014 13.9604 12.0014C13.4182 12.0014 13.0953 12.3665 12.9535 12.7192C12.9017 12.845 12.8889 13.0217 12.8889 13.1979V16.4945Z" fill="white"/>
</g>
</svg>
