<svg width="16" height="16" viewBox="0 0 16 16" fill="none" xmlns="http://www.w3.org/2000/svg">
<g id="Icons/Feather/map-pin">
<path id="Vector (Stroke)" fill-rule="evenodd" clip-rule="evenodd" d="M8 1.33333C6.58551 1.33333 5.22895 1.89524 4.22876 2.89543C3.22856 3.89562 2.66666 5.25218 2.66666 6.66667C2.66666 8.73204 4.01049 10.7362 5.48396 12.2915C6.20707 13.0548 6.93244 13.6796 7.47778 14.1139C7.68074 14.2755 7.85801 14.4101 7.99999 14.5151C8.14198 14.4101 8.31925 14.2755 8.52221 14.1139C9.06755 13.6796 9.79292 13.0548 10.516 12.2915C11.9895 10.7362 13.3333 8.73204 13.3333 6.66667C13.3333 5.25218 12.7714 3.89562 11.7712 2.89543C10.771 1.89524 9.41448 1.33333 8 1.33333ZM8 15.3333C7.6302 15.888 7.63003 15.8879 7.62983 15.8878L7.62793 15.8865L7.62349 15.8835L7.60821 15.8732C7.59523 15.8644 7.57671 15.8517 7.55303 15.8353C7.50568 15.8025 7.43764 15.7547 7.35186 15.6928C7.18036 15.5689 6.93757 15.3881 6.64721 15.1569C6.06755 14.6954 5.29292 14.0286 4.51603 13.2085C2.9895 11.5972 1.33333 9.26796 1.33333 6.66667C1.33333 4.89856 2.03571 3.20286 3.28595 1.95262C4.53619 0.702379 6.23188 0 8 0C9.7681 0 11.4638 0.702379 12.714 1.95262C13.9643 3.20286 14.6667 4.89856 14.6667 6.66667C14.6667 9.26796 13.0105 11.5972 11.484 13.2085C10.7071 14.0286 9.93244 14.6954 9.35278 15.1569C9.06242 15.3881 8.81963 15.5689 8.64813 15.6928C8.56235 15.7547 8.49431 15.8025 8.44696 15.8353C8.42328 15.8517 8.40476 15.8644 8.39178 15.8732L8.3765 15.8835L8.37206 15.8865L8.37065 15.8875C8.37046 15.8876 8.36979 15.888 8 15.3333ZM8 15.3333L8.36979 15.888C8.14586 16.0373 7.85377 16.0371 7.62983 15.8878L8 15.3333Z" fill="#A0A0A0"/>
<path id="Vector (Stroke)_2" fill-rule="evenodd" clip-rule="evenodd" d="M7.99999 5.33333C7.26362 5.33333 6.66666 5.93029 6.66666 6.66667C6.66666 7.40305 7.26362 8 7.99999 8C8.73637 8 9.33333 7.40305 9.33333 6.66667C9.33333 5.93029 8.73637 5.33333 7.99999 5.33333ZM5.33333 6.66667C5.33333 5.19391 6.52724 4 7.99999 4C9.47275 4 10.6667 5.19391 10.6667 6.66667C10.6667 8.13943 9.47275 9.33333 7.99999 9.33333C6.52724 9.33333 5.33333 8.13943 5.33333 6.66667Z" fill="#A0A0A0"/>
</g>
</svg>
