<svg width="41" height="40" viewBox="0 0 41 40" fill="none" xmlns="http://www.w3.org/2000/svg">
<g id="image 16 (traced)" clip-path="url(#clip0_101_1869)">
<g id="Black">
<path id="Vector" d="M30.9297 0.484541C30.8125 0.757978 30.7031 1.01579 30.6797 1.06267C30.6641 1.11735 30.9766 1.32829 31.4062 1.55485C33.5234 2.67204 35.2109 4.3986 36.25 6.5236C37.0703 8.20329 37.3906 9.59392 37.3984 11.4064C37.4062 12.8517 37.2734 13.6877 36.8281 15.0314C36.6562 15.5392 36.5156 15.9611 36.5156 15.9689C36.5156 16.008 37.6953 16.5002 37.7187 16.4767C37.7344 16.4611 37.8516 16.1642 37.9844 15.8205C39.1953 12.6095 38.9687 8.84392 37.3594 5.71892C36.4375 3.92985 34.8984 2.17985 33.2812 1.10954C32.4141 0.523603 31.4453 0.000165939 31.2578 0.000165939C31.1953 0.000165939 31.0469 0.218916 30.9297 0.484541Z" fill="white"/>
<path id="Vector_2" d="M10.4453 7.95312L0.5 15.8203V27.9062V40H20.5H40.5V28.0859V16.1719H39.875H39.25V17.5312V18.8906L29.9219 23.7031C24.7969 26.3516 20.5547 28.5156 20.5 28.5156C20.4531 28.5156 16.2109 26.3516 11.0781 23.7031L1.74219 18.8828L1.76562 17.7109L1.78906 16.5312L11.1172 9.16406C16.2422 5.10938 20.4688 1.79688 20.5 1.79688C20.5391 1.79688 20.8984 2.0625 21.3047 2.38281C21.7188 2.70312 22.0703 2.96875 22.0859 2.96875C22.1484 2.96875 22.9453 1.95312 22.9141 1.92188C21.4062 0.726562 20.5547 0.078125 20.4844 0.0859375C20.4297 0.0859375 15.9062 3.63281 10.4453 7.95312ZM10.875 25.1172C15.3594 27.4297 19.0156 29.3281 19 29.3359C18.9453 29.3828 1.82812 38.2031 1.78906 38.2031C1.76562 38.2031 1.75 34.1953 1.75 29.2969V20.3828L2.24219 20.6484C2.50781 20.7969 6.39062 22.8047 10.875 25.1172ZM39.2188 38.1797C39.2031 38.1953 35.3984 36.2578 30.7656 33.8594C26.125 31.4688 22.25 29.4688 22.1484 29.4141C21.9844 29.3281 22.6562 28.9688 30.5859 24.875L39.2109 20.4297L39.2344 29.2891C39.2422 34.1641 39.2344 38.1641 39.2188 38.1797ZM28.8203 34.375L37.0703 38.6328L28.7812 38.6562C24.2266 38.6641 16.7734 38.6641 12.2188 38.6562L3.9375 38.6328L12.1953 34.3594C16.7422 32.0078 20.4844 30.0938 20.5156 30.1016C20.5469 30.1094 24.2891 32.0312 28.8203 34.375Z" fill="white"/>
<path id="Vector_3" d="M22.6953 4.34375C22.3906 4.97656 21.9922 5.72656 21.8125 6.00781C20.4922 8.10938 18.5156 9.89844 16.3281 10.9766C15.8516 11.2031 13.9688 11.9844 12.1406 12.7031C10.3125 13.4141 8.79687 14.0313 8.75781 14.0547C8.71094 14.1016 10.9062 19.8047 11.0156 19.9141C11.0312 19.9297 11.5625 19.7422 12.1875 19.5C12.8125 19.25 13.3359 19.0625 13.3516 19.0781C13.3594 19.0938 13.8203 20.25 14.3672 21.6563C14.9219 23.0703 15.4141 24.2188 15.4609 24.2188C15.6172 24.2188 18.8906 22.9063 18.9141 22.8359C18.9297 22.7969 18.5 21.6563 17.9609 20.2969C17.4219 18.9297 16.9766 17.7734 16.9688 17.7266C16.9219 17.5234 19.1406 16.7969 20.5781 16.5469C21.3516 16.4141 23.875 16.4141 24.6406 16.5547C25.9062 16.7734 27.1016 17.1406 28.3828 17.6875C28.75 17.8359 29.0625 17.9531 29.0781 17.9297C29.1172 17.8984 23.4062 3.35938 23.3125 3.25781C23.2812 3.21875 23 3.71094 22.6953 4.34375ZM24.9766 11.0859C25.9531 13.5547 26.7344 15.5859 26.7188 15.6016C26.7031 15.6172 26.4844 15.5781 26.2344 15.5156C25.0859 15.2188 24.2188 15.125 22.6094 15.1328C20.8594 15.1328 19.8984 15.2578 18.5078 15.6719C18.125 15.7813 17.75 15.8906 17.6875 15.9063C17.6016 15.9297 17.4141 15.5313 16.9219 14.2813C16.5703 13.3672 16.2812 12.5781 16.2812 12.5391C16.2812 12.4922 16.4844 12.375 16.7344 12.2656C17.3359 12.0078 18.6172 11.2266 19.3281 10.6875C20.6016 9.72656 21.9766 8.26563 22.8047 6.97656C22.9766 6.71094 23.1406 6.51563 23.1641 6.54688C23.1875 6.57813 24.0078 8.61719 24.9766 11.0859ZM15.6406 14.6719C15.9922 15.5703 16.2812 16.3359 16.2812 16.375C16.2812 16.4297 13.4531 17.5859 11.8984 18.1641C11.7891 18.2031 11.6562 17.9297 11.125 16.5859C10.7734 15.6953 10.4844 14.9297 10.4766 14.8906C10.4609 14.8281 14.7031 13.0781 14.9219 13.0547C14.9688 13.0469 15.2891 13.7813 15.6406 14.6719ZM16.4609 20.1563C16.875 21.2031 17.1875 22.0859 17.1562 22.1172C17.0547 22.2031 16.1953 22.5234 16.1641 22.4844C16.1406 22.4688 15.7812 21.5781 15.3594 20.5L14.5859 18.5547L15.1016 18.3438C15.3828 18.2344 15.6406 18.1641 15.6641 18.1875C15.6953 18.2188 16.0547 19.1016 16.4609 20.1563Z" fill="white"/>
<path id="Vector_4" d="M29.4141 3.98448C29.2813 4.28916 29.1719 4.54698 29.1719 4.5626C29.1719 4.57823 29.4297 4.73448 29.75 4.91416C31.5781 5.91416 32.9063 7.6251 33.4375 9.64854C33.6016 10.2735 33.6406 10.6173 33.6484 11.4064C33.6563 12.4376 33.5781 12.9454 33.2578 13.8907C33.1484 14.211 33.0781 14.4767 33.0938 14.4923C33.1484 14.5392 34.2734 15.0001 34.2891 14.9845C34.3047 14.9689 34.3984 14.711 34.5078 14.4142C35.1016 12.7579 35.1641 10.797 34.6719 9.07823C34.4375 8.22666 33.75 6.83604 33.2422 6.16416C32.7578 5.53135 31.8438 4.65635 31.2344 4.24229C30.7109 3.89073 29.8828 3.4376 29.75 3.4376C29.7031 3.4376 29.5547 3.6876 29.4141 3.98448Z" fill="white"/>
<path id="Vector_5" d="M27.9609 7.32009C27.6328 8.05446 27.6328 8.0779 28.0156 8.24977C28.4844 8.46071 29.2422 9.24196 29.5078 9.78884C29.8516 10.4998 29.9844 11.2498 29.8828 11.9373C29.8359 12.2576 29.7578 12.5779 29.7187 12.656C29.5469 12.9763 29.6094 13.0232 30.7812 13.492C30.8281 13.5076 30.9453 13.2654 31.0469 12.9138C31.3125 12.031 31.3047 10.8357 31.0234 9.96071C30.7578 9.15602 30.375 8.5154 29.7812 7.92165C29.3437 7.47634 28.4687 6.87477 28.2578 6.87477C28.2109 6.87477 28.0781 7.0779 27.9609 7.32009Z" fill="white"/>
<path id="Vector_6" d="M7.67187 16.4686C7.39062 16.5858 7.13281 16.7029 7.10937 16.7264C7.02344 16.8045 7.98437 19.1014 8.09375 19.0779C8.44531 18.9998 9.25 18.6326 9.22656 18.5623C8.59375 16.9842 8.28906 16.2498 8.24219 16.2576C8.21875 16.2576 7.96094 16.3514 7.67187 16.4686Z" fill="white"/>
</g>
</g>
<defs>
<clipPath id="clip0_101_1869">
<rect width="40" height="40" fill="white" transform="translate(0.5)"/>
</clipPath>
</defs>
</svg>
