<svg width="25" height="24" viewBox="0 0 25 24" fill="none" xmlns="http://www.w3.org/2000/svg">
<g id="Pinterest">
<rect x="0.335449" width="24" height="24" rx="12" fill="#A8A8A8" fill-opacity="0.2"/>
<path id="Subtract" d="M11.7488 6.04013C9.80088 6.26274 7.8598 7.87605 7.77968 10.1806C7.72932 11.5877 8.1196 12.6434 9.42777 12.9398C9.99544 11.9146 9.24465 11.6885 9.12791 10.9469C8.64836 7.90769 12.5523 5.8351 14.5952 7.9569C16.0087 9.4261 15.0782 13.9462 12.7983 13.4764C10.6146 13.0277 13.8673 9.42962 12.1242 8.72313C10.7073 8.14904 9.95424 10.4794 10.6261 11.6369C10.2324 13.6275 9.38428 15.5033 9.72763 18C10.8412 17.1728 11.2166 15.5888 11.5245 13.9368C12.0842 14.2848 12.3829 14.6468 13.0971 14.7031C15.7306 14.9116 17.2012 12.0119 16.8419 9.33706C16.5226 6.96571 14.2107 5.75894 11.7488 6.04013Z" fill="white"/>
</g>
</svg>
