<svg width="25" height="24" viewBox="0 0 25 24" fill="none" xmlns="http://www.w3.org/2000/svg">
<g id="Twitter">
<rect x="0.335449" width="24" height="24" rx="12" fill="#A8A8A8" fill-opacity="0.2"/>
<path id="Subtract" d="M17.9824 8.55068C17.6195 8.70684 17.2381 8.81557 16.8474 8.8742C17.0301 8.84289 17.2988 8.51416 17.4058 8.3811C17.5683 8.18039 17.6921 7.95126 17.771 7.70536C17.771 7.6871 17.7893 7.661 17.771 7.64796C17.7618 7.64294 17.7515 7.6403 17.741 7.6403C17.7306 7.6403 17.7202 7.64294 17.711 7.64796C17.2869 7.87766 16.8354 8.05298 16.3674 8.16977C16.3511 8.17475 16.3337 8.1752 16.3172 8.17106C16.3006 8.16692 16.2855 8.15836 16.2735 8.14628C16.237 8.1029 16.1978 8.06194 16.1561 8.02366C15.9652 7.85262 15.7486 7.71264 15.5142 7.60882C15.1979 7.47905 14.8562 7.42284 14.515 7.44446C14.1839 7.46537 13.8606 7.55417 13.5653 7.70536C13.2745 7.86475 13.0189 8.08129 12.8139 8.34196C12.5982 8.61026 12.4426 8.92163 12.3573 9.25512C12.287 9.57234 12.279 9.9002 12.3338 10.2205C12.3338 10.2753 12.3338 10.2831 12.2869 10.2753C10.4266 10.0013 8.90035 9.34122 7.65323 7.92452C7.59844 7.8619 7.56974 7.8619 7.52539 7.92452C6.98271 8.74897 7.24623 10.0535 7.92457 10.6979C8.01589 10.784 8.10981 10.8675 8.20896 10.9458C7.89794 10.9237 7.59452 10.8394 7.31667 10.6979C7.26449 10.664 7.23579 10.6823 7.23318 10.7449C7.22578 10.8317 7.22578 10.919 7.23318 11.0058C7.28762 11.4218 7.45158 11.8159 7.70828 12.1478C7.96499 12.4797 8.30524 12.7375 8.69424 12.8947C8.78906 12.9353 8.88787 12.9659 8.98906 12.986C8.70113 13.0427 8.40583 13.0515 8.11503 13.0121C8.05241 12.9991 8.02893 13.033 8.05241 13.093C8.43594 14.1366 9.26822 14.4549 9.87873 14.6323C9.96222 14.6454 10.0457 14.6454 10.1396 14.6662C10.1396 14.6662 10.1396 14.6662 10.124 14.6819C9.94396 15.0106 9.21604 15.2324 8.88209 15.3472C8.27253 15.5661 7.62263 15.6498 6.9775 15.5924C6.87574 15.5768 6.85226 15.5794 6.82617 15.5924C6.80008 15.6055 6.82617 15.6342 6.85487 15.6603C6.98532 15.7464 7.11577 15.822 7.25144 15.8951C7.65533 16.1154 8.08232 16.2904 8.52465 16.4169C10.8154 17.0483 13.3931 16.5839 15.1124 14.875C16.4639 13.5339 16.9388 11.6841 16.9388 9.83172C16.9388 9.76127 17.0249 9.71953 17.0744 9.683C17.4163 9.41659 17.7178 9.10197 17.9693 8.74897C18.0129 8.69635 18.0352 8.62935 18.0319 8.56112C18.0319 8.52198 18.0319 8.52981 17.9824 8.55068Z" fill="white"/>
</g>
</svg>
