<svg width="21" height="20" viewBox="0 0 21 20" fill="none" xmlns="http://www.w3.org/2000/svg">
<g id="u:fast-mail-alt">
<path id="Vector" d="M13.575 7.49984C13.4711 6.94249 13.1765 6.43868 12.7417 6.07484C12.2804 5.6721 11.6873 5.45267 11.075 5.45817H4.5C4.13803 5.45263 3.77918 5.52577 3.44825 5.67253C3.11732 5.81929 2.82222 6.03617 2.58333 6.30817V6.35817C2.35728 6.6298 2.19138 6.94627 2.09657 7.2867C2.00177 7.62713 1.98021 7.9838 2.03333 8.33317L2.76667 12.4998C2.86964 13.0853 3.17785 13.6149 3.63601 13.9936C4.09417 14.3724 4.67229 14.5755 5.26667 14.5665H11.8833C12.2471 14.5657 12.6064 14.4855 12.936 14.3315C13.2656 14.1775 13.5576 13.9534 13.7917 13.6748C14.0165 13.3965 14.1789 13.0732 14.2681 12.7268C14.3572 12.3803 14.3709 12.0187 14.3083 11.6665L13.575 7.49984ZM10.7333 7.08317L8.78333 9.28317C8.64049 9.44384 8.44107 9.54309 8.22676 9.56017C8.01245 9.57726 7.79983 9.51085 7.63333 9.37484L4.80833 7.08317H10.7333ZM12.4833 12.6165C12.4059 12.7095 12.3091 12.7845 12.1997 12.8363C12.0904 12.8881 11.971 12.9155 11.85 12.9165H5.23333C5.03481 12.9194 4.84177 12.8513 4.68899 12.7245C4.53622 12.5977 4.43373 12.4205 4.4 12.2248L3.725 8.33317L6.58333 10.6665C7.08385 11.0735 7.72234 11.2713 8.3653 11.2185C9.00827 11.1657 9.60593 10.8664 10.0333 10.3832L12 8.1665L12.6667 11.9415C12.6868 12.0606 12.6809 12.1826 12.6492 12.2992C12.6176 12.4157 12.561 12.524 12.4833 12.6165ZM18.175 8.74984H16.5083C16.2873 8.74984 16.0754 8.83763 15.9191 8.99392C15.7628 9.1502 15.675 9.36216 15.675 9.58317C15.675 9.80418 15.7628 10.0161 15.9191 10.1724C16.0754 10.3287 16.2873 10.4165 16.5083 10.4165H18.175C18.396 10.4165 18.608 10.3287 18.7643 10.1724C18.9205 10.0161 19.0083 9.80418 19.0083 9.58317C19.0083 9.36216 18.9205 9.1502 18.7643 8.99392C18.608 8.83763 18.396 8.74984 18.175 8.74984ZM18.175 7.08317C18.396 7.08317 18.608 6.99537 18.7643 6.83909C18.9205 6.68281 19.0083 6.47085 19.0083 6.24984C19.0083 6.02882 18.9205 5.81686 18.7643 5.66058C18.608 5.5043 18.396 5.4165 18.175 5.4165H15.675C15.454 5.4165 15.242 5.5043 15.0857 5.66058C14.9295 5.81686 14.8417 6.02882 14.8417 6.24984C14.8417 6.47085 14.9295 6.68281 15.0857 6.83909C15.242 6.99537 15.454 7.08317 15.675 7.08317H18.175Z" fill="#A0A0A0"/>
</g>
</svg>
