<svg width="16" height="16" viewBox="0 0 16 16" fill="none" xmlns="http://www.w3.org/2000/svg">
<g id="u:heart-sign">
<path id="Vector" d="M13.44 3.33315C12.7291 2.62962 11.7902 2.20333 10.7927 2.13121C9.79516 2.05908 8.80469 2.34587 8.00001 2.93982C7.15178 2.30891 6.096 2.02282 5.04529 2.13918C3.99458 2.25553 3.02697 2.76567 2.33733 3.56687C1.64768 4.36808 1.28723 5.40083 1.32854 6.45716C1.36986 7.51349 1.80989 8.51493 2.56001 9.25982L6.56001 13.2931C6.93501 13.6677 7.44334 13.8781 7.97334 13.8781C8.50335 13.8781 9.01168 13.6677 9.38668 13.2931L13.3867 9.25982C13.7806 8.87492 14.0946 8.41595 14.3106 7.90931C14.5266 7.40266 14.6404 6.85832 14.6454 6.30757C14.6503 5.75682 14.5464 5.21052 14.3395 4.70007C14.1327 4.18962 13.827 3.72508 13.44 3.33315ZM12.5 8.30648L8.50001 12.3065C8.43804 12.369 8.3643 12.4186 8.28306 12.4524C8.20182 12.4863 8.11469 12.5037 8.02668 12.5037C7.93867 12.5037 7.85153 12.4863 7.77029 12.4524C7.68905 12.4186 7.61532 12.369 7.55334 12.3065L3.55334 8.30648C3.03052 7.77205 2.73775 7.05413 2.73775 6.30648C2.73775 5.55884 3.03052 4.84092 3.55334 4.30648C4.08611 3.78048 4.80466 3.48553 5.55334 3.48553C6.30203 3.48553 7.02057 3.78048 7.55334 4.30648C7.61532 4.36897 7.68905 4.41857 7.77029 4.45241C7.85153 4.48626 7.93867 4.50368 8.02668 4.50368C8.11469 4.50368 8.20182 4.48626 8.28306 4.45241C8.3643 4.41857 8.43804 4.36897 8.50001 4.30648C9.04719 3.87108 9.73548 3.6523 10.4336 3.69188C11.1318 3.73146 11.7909 4.02662 12.2854 4.52109C12.7799 5.01555 13.075 5.67471 13.1146 6.37286C13.1542 7.07101 12.9354 7.75931 12.5 8.30648Z" fill="#192335"/>
</g>
</svg>
