<svg width="17" height="16" viewBox="0 0 17 16" fill="none" xmlns="http://www.w3.org/2000/svg">
<g id="u:users-alt">
<path id="Vector" d="M8.74775 8.14683C9.10347 7.83892 9.38878 7.45809 9.58433 7.03018C9.77988 6.60227 9.88109 6.1373 9.88108 5.66683C9.88108 4.78277 9.52989 3.93493 8.90477 3.30981C8.27965 2.68469 7.43181 2.3335 6.54775 2.3335C5.66369 2.3335 4.81585 2.68469 4.19073 3.30981C3.56561 3.93493 3.21442 4.78277 3.21442 5.66683C3.21441 6.1373 3.31562 6.60227 3.51117 7.03018C3.70672 7.45809 3.99203 7.83892 4.34775 8.14683C3.41451 8.56942 2.62273 9.25185 2.06707 10.1125C1.51141 10.9732 1.2154 11.9757 1.21442 13.0002C1.21442 13.177 1.28465 13.3465 1.40968 13.4716C1.5347 13.5966 1.70427 13.6668 1.88108 13.6668C2.05789 13.6668 2.22746 13.5966 2.35249 13.4716C2.47751 13.3465 2.54775 13.177 2.54775 13.0002C2.54775 11.9393 2.96918 10.9219 3.71932 10.1717C4.46947 9.42159 5.48688 9.00016 6.54775 9.00016C7.60862 9.00016 8.62603 9.42159 9.37618 10.1717C10.1263 10.9219 10.5478 11.9393 10.5478 13.0002C10.5478 13.177 10.618 13.3465 10.743 13.4716C10.868 13.5966 11.0376 13.6668 11.2144 13.6668C11.3912 13.6668 11.5608 13.5966 11.6858 13.4716C11.8108 13.3465 11.8811 13.177 11.8811 13.0002C11.8801 11.9757 11.5841 10.9732 11.0284 10.1125C10.4728 9.25185 9.68099 8.56942 8.74775 8.14683ZM6.54775 7.66683C6.15219 7.66683 5.76551 7.54953 5.43661 7.32977C5.10771 7.11001 4.85137 6.79765 4.69999 6.4322C4.54862 6.06674 4.50901 5.66461 4.58618 5.27665C4.66335 4.88869 4.85383 4.53232 5.13354 4.25262C5.41324 3.97291 5.76961 3.78243 6.15757 3.70526C6.54553 3.62809 6.94766 3.6677 7.31312 3.81907C7.67857 3.97045 7.99093 4.22679 8.21069 4.55569C8.43045 4.88459 8.54775 5.27127 8.54775 5.66683C8.54775 6.19726 8.33704 6.70597 7.96196 7.08104C7.58689 7.45612 7.07818 7.66683 6.54775 7.66683ZM13.0411 7.88016C13.4677 7.39972 13.7464 6.8062 13.8436 6.17106C13.9408 5.53591 13.8524 4.88621 13.5889 4.30016C13.3255 3.71411 12.8983 3.21669 12.3587 2.86778C11.8192 2.51886 11.1903 2.33332 10.5478 2.3335C10.3709 2.3335 10.2014 2.40373 10.0763 2.52876C9.95132 2.65378 9.88108 2.82335 9.88108 3.00016C9.88108 3.17697 9.95132 3.34654 10.0763 3.47157C10.2014 3.59659 10.3709 3.66683 10.5478 3.66683C11.0782 3.66683 11.5869 3.87754 11.962 4.25262C12.337 4.62769 12.5478 5.1364 12.5478 5.66683C12.5468 6.01699 12.4539 6.36076 12.2785 6.66378C12.103 6.96679 11.851 7.21842 11.5478 7.3935C11.4489 7.45051 11.3664 7.53194 11.308 7.62999C11.2496 7.72804 11.2174 7.83943 11.2144 7.9535C11.2116 8.06667 11.2377 8.17869 11.2902 8.279C11.3427 8.37931 11.4198 8.4646 11.5144 8.52683L11.7744 8.70016L11.8611 8.74683C12.6647 9.12797 13.3426 9.73082 13.8151 10.4844C14.2875 11.2379 14.5348 12.1108 14.5278 13.0002C14.5278 13.177 14.598 13.3465 14.723 13.4716C14.848 13.5966 15.0176 13.6668 15.1944 13.6668C15.3712 13.6668 15.5408 13.5966 15.6658 13.4716C15.7908 13.3465 15.8611 13.177 15.8611 13.0002C15.8665 11.9771 15.6103 10.9697 15.1167 10.0735C14.6232 9.17741 13.9086 8.42237 13.0411 7.88016Z" fill="#097E52"/>
</g>
</svg>
